<?xml version="1.0" encoding="UTF-8"?><svg id="a" xmlns="http://www.w3.org/2000/svg" viewBox="0 0 90 90"><defs><style>.e{fill:#7d7d7d;}.f{fill:#cfe3e6;}</style></defs><g id="b" transform="translate(-143 -93)"><g id="c" transform="translate(143 93)"><path class="f" d="M45,88.5c-5.87,0-11.57-1.15-16.93-3.42-5.18-2.19-9.83-5.33-13.83-9.32-4-4-7.13-8.65-9.32-13.83-2.27-5.36-3.42-11.06-3.42-16.93s1.15-11.57,3.42-16.93c2.19-5.18,5.33-9.83,9.32-13.83,4-4,8.65-7.13,13.83-9.32,5.36-2.27,11.06-3.42,16.93-3.42s11.57,1.15,16.93,3.42c5.18,2.19,9.83,5.33,13.83,9.32,4,4,7.13,8.65,9.32,13.83,2.27,5.36,3.42,11.06,3.42,16.93s-1.15,11.57-3.42,16.93c-2.19,5.18-5.33,9.83-9.32,13.83-4,4-8.65,7.13-13.83,9.32-5.36,2.27-11.06,3.42-16.93,3.42Z"/><path class="e" d="M45,3c-5.67,0-11.17,1.11-16.35,3.3-5,2.12-9.49,5.14-13.35,9s-6.89,8.35-9,13.35c-2.19,5.18-3.3,10.68-3.3,16.35s1.11,11.17,3.3,16.35c2.12,5,5.14,9.49,9,13.35s8.35,6.89,13.35,9c5.18,2.19,10.68,3.3,16.35,3.3s11.17-1.11,16.35-3.3c5-2.12,9.49-5.14,13.35-9s6.89-8.35,9-13.35c2.19-5.18,3.3-10.68,3.3-16.35s-1.11-11.17-3.3-16.35c-2.12-5-5.14-9.49-9-13.35s-8.35-6.89-13.35-9c-5.18-2.19-10.68-3.3-16.35-3.3m0-3c24.85,0,45,20.15,45,45s-20.15,45-45,45S0,69.85,0,45,20.15,0,45,0Z"/></g><path id="d" class="e" d="M65.15,70.61c-1.18,0-2.14-.96-2.14-2.14s.96-2.14,2.14-2.14c.58,0,1.13-.29,1.46-.77,.31-.43,.39-1,.21-1.5-2.45-6.45-7.56-11.53-14.02-13.94-1.08-.4-1.87-1.35-2.06-2.49-.18-1.16,.26-2.33,1.16-3.09,5.03-4.11,5.78-11.52,1.67-16.55-4.11-5.03-11.52-5.78-16.55-1.67-5.03,4.11-5.78,11.52-1.67,16.55,.51,.63,1.09,1.2,1.72,1.71,1.4,1.14,1.6,3.19,.46,4.59-.36,.44-.83,.78-1.36,.98-6.44,2.4-11.53,7.47-13.98,13.89-.2,.5-.12,1.07,.21,1.5,.33,.48,.88,.77,1.46,.77h28.17c1.18,0,2.14,.96,2.14,2.14s-.96,2.14-2.14,2.14H23.81c-1.99,0-3.84-.98-4.97-2.62-1.11-1.61-1.37-3.66-.69-5.49,2.67-7.05,8.06-12.73,14.96-15.78-6.24-6.25-6.23-16.38,.02-22.63,.11-.11,.21-.21,.32-.31,3.19-3.05,7.51-4.64,11.92-4.37,8.85,.48,15.64,8.05,15.16,16.9-.21,3.94-1.87,7.66-4.65,10.46,6.89,3.06,12.28,8.74,14.97,15.78,.68,1.83,.43,3.88-.69,5.49-1.16,1.61-3.03,2.57-5.02,2.57h0Z"/></g></svg>