<?xml version="1.0" encoding="UTF-8"?><svg id="a" xmlns="http://www.w3.org/2000/svg" viewBox="0 0 531.98 532" height="25" width="25"><path d="M507.7,29.12C490.34,10.64,466.26,0,441.06,0H90.5C65.3,0,41.22,10.64,23.86,29.12,7.06,47.6-1.9,72.24,.34,97.44L26.66,448c3.36,47.04,43.12,84,90.72,84H414.74c47.04,0,86.8-36.96,90.72-84l26.32-350.56c1.68-25.2-7.28-49.84-24.07-68.32h0Zm-40.88,416.08c-2.24,27.44-25.2,48.72-52.64,48.72h-129.36v-175.84c0-10.64-8.4-19.04-19.04-19.04s-19.04,8.4-19.04,19.04v175.84H117.38c-27.44,0-50.4-21.28-52.64-48.72L37.85,94.65c-1.12-14.56,3.92-29.12,14-39.76,10.08-10.64,24.08-16.8,38.64-16.8H441.06c15.12,0,28.56,6.16,38.64,16.8,10.08,10.64,15.12,25.2,14,39.76l-26.88,350.55Z"/><path d="M330.74,92.96H200.82c-30.24,0-54.88,24.64-54.88,54.88v44.24c0,30.24,24.64,54.88,54.88,54.88h129.92c30.24,0,54.88-24.64,54.88-54.88v-43.68c0-30.24-24.64-55.44-54.88-55.44h0Zm16.8,99.12c0,9.52-7.84,16.8-16.8,16.8h-35.84l17.92-38.64c2.24-4.48,1.12-10.08-2.8-13.44-4.48-4.48-12.32-4.48-16.8,.56l-48.72,51.52h-43.68c-9.52,0-16.8-7.84-16.8-16.8v-43.68c0-9.52,7.84-16.8,16.8-16.8h129.92c9.52,0,16.8,7.84,16.8,16.8v43.68Z"/></svg>