<svg xmlns="http://www.w3.org/2000/svg" height="25" viewBox="0 0 25 20.585">
  <path id="noatt_noun-leaderboard-3388492" d="M23.863,4.565h-6.44V1.134a1.149,1.149,0,0,0-.333-.809,1.132,1.132,0,0,0-.8-.335H8.713a1.132,1.132,0,0,0-.8.335,1.146,1.146,0,0,0-.333.809v8H1.137a1.132,1.132,0,0,0-.8.335A1.147,1.147,0,0,0,0,10.282v9.149a1.147,1.147,0,0,0,.333.809,1.132,1.132,0,0,0,.8.335H23.863a1.132,1.132,0,0,0,.8-.335A1.147,1.147,0,0,0,25,19.431V5.708a1.147,1.147,0,0,0-.333-.809,1.132,1.132,0,0,0-.8-.335h0ZM7.576,18.287h-5.3V11.426h5.3v6.861ZM15.151,5.708V18.287h-5.3V2.278h5.3Zm7.576,12.579h-5.3V6.852h5.3Z" transform="translate(0 0.01)" fill="#fbf204"/>
</svg>
