<?xml version="1.0" encoding="UTF-8"?><svg id="a" xmlns="http://www.w3.org/2000/svg" viewBox="0 0 487.38 395.39"><path d="M411.34,301.24c-5.25,0-10.15-2.1-13.65-6.65-5.95-7.7-4.9-18.55,2.8-24.5,16.8-13.3,31.85-29.05,44.45-46.2,10.15-13.3,10.15-31.5,0-45.15-47.95-64.4-121.1-101.15-201.25-101.15-32.9,0-65.1,6.3-95.2,18.55-9.1,3.85-19.25-.7-22.75-9.45-3.5-9.1,.7-19.25,9.45-22.75,34.3-14,71.05-21.35,108.5-21.35,89.95,0,175.7,43.05,229.25,115.5,19.25,25.9,19.25,60.9,0,86.8-14.7,19.6-31.5,37.1-50.75,52.5-3.15,2.8-7,3.85-10.85,3.85h0Zm-167.65,59.15c-89.95,0-175.7-43.05-229.25-115.5-19.25-25.9-19.25-60.9,0-86.8,11.55-15.75,25.2-30.45,39.9-43.4,7.35-6.3,18.2-5.6,24.85,1.4,6.3,7.35,5.6,18.2-1.4,24.85-12.95,11.55-24.85,24.15-35,38.15-10.15,13.3-10.15,31.5,0,45.15,47.6,64.05,120.75,101.15,200.9,101.15,32.9,0,65.1-6.3,95.2-18.9,9.1-3.85,19.25,.7,22.75,9.45,3.85,9.1-.7,19.25-9.45,22.75-34.3,14.35-70.7,21.7-108.5,21.7h0Z"/><path d="M241.24,286.19c-47.25,0-85.75-38.5-85.75-85.75,0-9.8,7.7-17.5,17.5-17.5s17.5,7.7,17.5,17.5c0,28,22.75,50.75,50.75,50.75,11.9,0,23.1-3.85,32.2-11.55,7.35-6.3,18.55-4.9,24.5,2.45,6.3,7.35,4.9,18.55-2.45,24.5-15.05,12.95-34.3,19.6-54.25,19.6h0Zm68.25-67.9c-9.8,0-17.5-7.7-17.5-17.5,0-28-22.75-50.75-50.75-50.75-11.2,0-22.05,3.5-31.15,10.5h0c-3.66,2.86-8.3,4.14-12.91,3.54-4.61-.59-8.78-3-11.59-6.69-5.95-7.7-4.55-18.55,3.15-24.5,15.05-11.9,33.25-17.85,52.5-17.85,47.25,0,85.75,38.5,85.75,85.75,0,9.45-7.7,17.5-17.5,17.5h0Z"/><path d="M399.79,395.39c-4.9,0-9.45-2.1-12.95-5.95L62.04,29.29c-6.3-7.35-5.95-18.2,1.4-24.85,7.35-6.3,18.2-5.95,24.85,1.4L412.74,366.34c6.3,7.35,5.95,18.2-1.4,24.85-3.5,2.8-7.35,4.2-11.55,4.2h0Z"/></svg>