<?xml version="1.0" encoding="UTF-8"?><svg id="a" xmlns="http://www.w3.org/2000/svg" viewBox="0 0 358.4 303.6" height="30" width="30"><path d="M257.4,33.6v56h-57c-8.91,0-17.46,3.54-23.76,9.84s-9.84,14.85-9.84,23.76v56h-56c-8.91,0-17.46,3.54-23.76,9.84s-9.84,14.85-9.84,23.76v56H0v34.8H78.4c8.91,0,17.46-3.54,23.76-9.84s9.84-14.85,9.84-23.76v-56h56c8.91,0,17.46-3.54,23.76-9.84s9.84-14.85,9.84-23.76v-56h56c8.91,0,17.46-3.54,23.76-9.84,6.3-6.3,9.84-14.85,9.84-23.76V34.8h67.2V0h-67.4c-8.91,0-17.46,3.54-23.76,9.84-6.3,6.3-9.84,14.85-9.84,23.76h0Z"/></svg>