<?xml version="1.0" encoding="UTF-8"?><svg id="a" xmlns="http://www.w3.org/2000/svg" viewBox="0 0 700 537.56"><path d="M46.92,525.47c-15.01-26.27-27.21-54.42-34.72-84.45C3.75,411.93,0,381.9,0,350,0,253.35,39.41,166.09,102.28,102.28,166.09,39.41,253.35,0,350,0s183.91,39.41,247.72,102.28c63.81,63.81,102.28,151.07,102.28,247.72,0,31.9-3.75,61.93-11.26,91.02-8.45,30.03-20.65,58.18-35.66,84.45-6.57,11.26-21.58,15.95-33.78,8.45l-43.16-24.4c-12.2-7.51-15.95-22.52-9.38-33.78,6.57-12.2,22.52-16.89,33.78-9.38l21.58,12.2c7.51-15.95,13.14-32.84,17.83-50.67,4.69-16.89,7.51-34.72,9.38-52.55h-24.4c-13.14,0-24.4-11.26-24.4-25.34s11.26-24.4,24.4-24.4h24.4c-2.82-36.59-13.14-71.31-27.21-103.22l-21.58,12.2c-11.26,6.57-27.21,2.82-33.78-9.38-6.57-12.2-2.82-27.21,9.38-33.78l20.65-12.2c-10.32-15.01-21.58-29.09-34.72-41.29-12.2-12.2-26.27-24.4-40.35-34.72l-12.2,21.58c-7.51,11.26-22.52,15.95-34.72,8.45-11.26-6.57-15.95-21.58-8.45-33.78l12.2-20.64c-31.9-15.01-66.62-24.4-103.22-28.15v24.4c0,14.07-11.26,25.34-25.34,25.34s-24.4-11.26-24.4-25.34v-24.4c-36.59,3.75-71.31,13.14-103.22,28.15l12.2,20.65c6.57,12.2,2.82,27.21-9.38,33.78-12.2,7.51-27.21,2.82-33.78-8.45l-12.2-21.58c-15.01,10.32-29.09,22.52-41.29,34.72-12.2,12.2-24.4,26.27-34.72,41.29l20.64,12.2c12.2,6.57,16.89,21.58,9.38,33.78-6.57,11.26-21.58,15.95-33.78,9.38l-20.64-12.2c-15.01,31.9-24.4,66.62-28.15,103.22h24.4c14.07,0,25.34,10.32,25.34,24.4s-11.26,25.34-25.34,25.34h-24.4c1.88,17.83,4.69,35.66,9.38,52.55,4.69,17.83,11.26,34.72,18.77,50.67l20.64-12.2c12.2-7.51,27.21-2.82,33.78,9.38,7.51,11.26,2.82,26.27-9.38,33.78l-43.16,24.4c-11.26,7.51-27.21,2.82-33.78-8.45h0Zm303.08-250.54c12.2,0,22.52,2.82,32.84,7.51l64.75-64.75c9.38-10.32,25.34-10.32,35.66,0,9.38,9.38,9.38,25.34,0,34.72l-65.68,65.68c4.69,9.38,7.51,20.64,7.51,31.9,0,20.64-8.45,39.41-21.58,53.48-14.07,13.14-32.84,21.58-53.48,21.58s-39.41-8.45-52.55-21.58c-14.07-14.07-22.52-32.84-22.52-53.48s8.45-39.41,22.52-52.55c13.14-14.07,31.9-22.52,52.55-22.52h0Zm17.83,57.24c-4.69-4.69-10.32-6.57-17.83-6.57-6.57,0-13.14,1.88-17.83,6.57-4.69,4.69-6.57,11.26-6.57,17.83,0,7.51,1.88,13.14,6.57,17.83,4.69,4.69,11.26,7.51,17.83,7.51,7.51,0,13.14-2.82,17.83-7.51s7.51-10.32,7.51-17.83c0-6.57-2.82-13.14-7.51-17.83Z"/></svg>