<svg xmlns="http://www.w3.org/2000/svg" width="25" height="25" viewBox="0 0 25 25">
  <path id="noatt_noun-notes-4697529" d="M23.477,11.24V21.56a3.4,3.4,0,0,1-1.032,2.432A3.567,3.567,0,0,1,19.956,25H3.522a3.561,3.561,0,0,1-2.49-1.008A3.4,3.4,0,0,1,0,21.56V5.507A3.4,3.4,0,0,1,1.032,3.074a3.567,3.567,0,0,1,2.49-1.008h8.217a1.181,1.181,0,0,1,1.017.573,1.124,1.124,0,0,1,0,1.147,1.179,1.179,0,0,1-1.017.573H3.522a1.19,1.19,0,0,0-.83.335,1.13,1.13,0,0,0-.343.811V21.56a1.135,1.135,0,0,0,.343.811,1.185,1.185,0,0,0,.83.335H19.956a1.19,1.19,0,0,0,.83-.335,1.13,1.13,0,0,0,.343-.811V11.24a1.144,1.144,0,0,1,.587-.993,1.2,1.2,0,0,1,1.174,0A1.142,1.142,0,0,1,23.477,11.24ZM23.97,1.012a3.384,3.384,0,0,1,0,4.862L12.349,17.226a1.18,1.18,0,0,1-.6.309l-4.155.814H7.36a1.187,1.187,0,0,1-.926-.412,1.128,1.128,0,0,1-.248-.964l.857-4.025a1.137,1.137,0,0,1,.317-.585L18.982,1.012a3.581,3.581,0,0,1,4.989,0h0ZM22.656,3.443a1.135,1.135,0,0,0-.352-.814,1.194,1.194,0,0,0-1.668,0L9.262,13.74l-.411,2.03,2.078-.4L22.3,4.245a1.134,1.134,0,0,0,.352-.8h0Z" fill="#fbf204"/>
</svg>
