<svg xmlns="http://www.w3.org/2000/svg" width="25" height="25" viewBox="0 0 25 25">
  <path id="noatt_noun-user-1935355" d="M78.777,25a1.047,1.047,0,0,1,0-2.093.846.846,0,0,0,.782-1.109A11.439,11.439,0,0,0,73,15a1.561,1.561,0,0,1-.963-1.214,1.676,1.676,0,0,1,.541-1.507,5.827,5.827,0,0,0,2.025-4.583,5.635,5.635,0,0,0-5.194-5.587,5.4,5.4,0,0,0-4.091,1.57,5.885,5.885,0,0,0,.321,8.622,1.638,1.638,0,0,1,.541,1.486,1.586,1.586,0,0,1-.963,1.235,11.427,11.427,0,0,0-6.538,6.78.763.763,0,0,0,.1.732.828.828,0,0,0,.682.377H72.64a1.047,1.047,0,0,1,0,2.093h-13.2a2.8,2.8,0,0,1-2.326-1.277,3.018,3.018,0,0,1-.321-2.679,13.516,13.516,0,0,1,7-7.7,8.05,8.05,0,0,1,.16-11.2A7.256,7.256,0,0,1,69.532.012a7.711,7.711,0,0,1,7.1,7.638,8.012,8.012,0,0,1-2.186,5.713,13.583,13.583,0,0,1,7,7.7,3.025,3.025,0,0,1-.321,2.679A2.871,2.871,0,0,1,78.777,25Z" transform="translate(-56.621 0.001)" fill="#fbf204"/>
</svg>
