<?xml version="1.0" encoding="UTF-8"?><svg id="a" xmlns="http://www.w3.org/2000/svg" viewBox="0 0 487.38 317.8"><path d="M243.69,317.8c-89.95,0-175.7-43.05-229.25-115.5-19.25-25.9-19.25-60.9,0-86.8C67.99,43.4,153.74,0,243.69,0s175.7,43.05,229.25,115.5c19.25,25.9,19.25,60.9,0,86.8-53.55,72.1-139.3,115.5-229.25,115.5Zm0-282.45c-80.15,0-153.3,36.75-201.25,101.15-10.15,13.3-10.15,31.5,0,45.15,47.95,64.4,121.1,101.15,201.25,101.15s153.3-36.75,201.25-101.15c10.15-13.3,10.15-31.5,0-45.15-47.95-64.4-121.1-101.15-201.25-101.15Z"/><path d="M241.24,243.6c-47.25,0-85.75-38.5-85.75-85.75s38.5-85.75,85.75-85.75,85.75,38.5,85.75,85.75-38.5,85.75-85.75,85.75Zm0-136.15c-28,0-50.75,22.75-50.75,50.75s22.75,50.4,50.75,50.4,50.75-22.75,50.75-50.75-22.75-50.4-50.75-50.4h0Z"/></svg>