<?xml version="1.0" encoding="utf-8"?>
<!-- Generator: Adobe Illustrator 26.2.1, SVG Export Plug-In . SVG Version: 6.00 Build 0)  -->
<svg version="1.1" id="a" xmlns="http://www.w3.org/2000/svg" xmlns:xlink="http://www.w3.org/1999/xlink" x="0px" y="0px"
	 viewBox="0 0 459.5 459.5" style="enable-background:new 0 0 459.5 459.5;" xml:space="preserve" height="30" width="30">
<path d="M368.5,0.1c-4.4,0.4-8.1,3.3-9.5,7.5s-0.3,8.7,2.9,11.8l31.3,31.3l-31.9,31.7l-34.1-34.1c-2.4-2.4-5.8-3.5-9.1-3.2
	c-2.6,0.3-5,1.5-6.8,3.3L120.7,242.1c-14.1,14.3-20.7,33.4-19.8,52.2l-8.6,8.6c-14.9,14.9-17.1,37.9-6.8,55.3L3.5,440.2
	c-2.2,2.1-3.4,4.9-3.5,8c0,3,1.1,5.9,3.2,8c2.1,2.1,5,3.3,8,3.3s5.9-1.2,8-3.4l82.1-82.1c17.5,10.4,40.5,8,55.5-7l8.4-8.4
	c18.7,1,37.8-5.5,52.2-19.8h0.2l193.7-190.8c2.1-2.1,3.3-5,3.3-8s-1.2-5.9-3.3-8l-34.1-33.9L409,66.4l31.3,31.3c2.1,2.2,5,3.4,8,3.4
	c3,0,5.9-1.2,8-3.3s3.3-5,3.2-8.1c0-3-1.3-5.9-3.5-7.9L377.6,3.4C375.3,1,371.9-0.3,368.5,0.1L368.5,0.1L368.5,0.1z M319.4,72
	l68.1,68.1l-15,14.9l-17.1-17.1c-2.4-2.4-5.7-3.6-9.1-3.3c-4.4,0.4-8.1,3.4-9.5,7.5s-0.3,8.7,2.9,11.8l16.8,16.8L340,186.6
	l-17.3-17.3c-2.1-2.2-5-3.5-8-3.5c-4.6,0-8.7,2.7-10.5,7s-0.7,9.1,2.6,12.3l17.3,17.3l-16.6,16.4l-17.1-17.1c-2.1-2.2-5-3.5-8-3.5
	c-4.6,0-8.7,2.7-10.5,7s-0.7,9.1,2.6,12.3l17.1,17.1L274.9,251l-17-17c-2.1-2.2-5-3.5-8.1-3.5c-4.6,0-8.7,2.7-10.5,7
	s-0.7,9.1,2.6,12.3l17,17l-16.5,16.1l-17.1-16.6c-2.1-2.1-5-3.4-8.1-3.3c-4.6,0-8.7,2.9-10.4,7.2s-0.5,9.1,2.8,12.3l16.8,16.3
	l-17,16.5l-16.4-16.5c-2.4-2.4-5.7-3.6-9.1-3.3c-4.4,0.4-8.1,3.4-9.5,7.5c-1.4,4.1-0.3,8.7,2.9,11.8l15.2,15.4
	c-17.7,10.8-40.8,8.4-56.2-7c-18.2-18.2-17.9-46.7,0.2-65.1L319.4,72L319.4,72z M107.4,319.6c3.2,7,7.6,13.5,13.3,19.2
	c5.7,5.7,12.2,10.2,19.1,13.5c-9.2,8.1-22.7,7.8-31.5-1C99.4,342.4,99.2,328.8,107.4,319.6L107.4,319.6L107.4,319.6z"/>
</svg>
