<?xml version="1.0" encoding="UTF-8"?><svg id="a" xmlns="http://www.w3.org/2000/svg" viewBox="0 0 349.76 543.52" height="31" width="19.95"><path d="M349.76,314.68V78.5C349.76,35.22,314.54,0,271.25,0H78.5C35.21,0,0,35.22,0,78.5v236.18c0,62.66,50.98,113.64,113.64,113.64h28.41v106.97c0,4.55,3.68,8.23,8.23,8.23h49.19c4.55,0,8.23-3.69,8.23-8.23v-106.97h28.41c62.66,0,113.64-50.98,113.64-113.64h.01Zm-158.52,212.37h-32.72v-98.73h32.72v98.73Zm44.88-115.2H113.64c-53.58,0-97.17-43.59-97.17-97.17V78.5c0-34.2,27.83-62.03,62.04-62.03h192.75c34.2,0,62.04,27.83,62.04,62.03v236.18c0,53.58-43.59,97.17-97.18,97.17h0Z"/><path d="M147.13,310.26H61.35c-3.84,0-7.51,1.64-10.09,4.49-2.6,2.88-3.86,6.74-3.46,10.61,3.48,33.89,31.83,59.45,65.95,59.45h33.37c7.5,0,13.59-6.1,13.59-13.59v-47.35c0-7.5-6.1-13.6-13.59-13.6h.01Zm-2.88,58.05h-30.5c-24.6,0-45.21-17.67-49.16-41.59h79.65v41.59h.01Z"/><path d="M288.41,310.26h-85.78c-7.5,0-13.59,6.1-13.59,13.59v47.35c0,7.5,6.1,13.59,13.59,13.59h33.37c34.12,0,62.47-25.55,65.95-59.44,.4-3.86-.86-7.73-3.46-10.61-2.57-2.84-6.25-4.48-10.08-4.48h0Zm-52.4,58.06h-30.5v-41.59h79.65c-3.94,23.92-24.55,41.59-49.16,41.59h.01Z"/><path d="M73.04,269.53h203.68c13.9,0,25.21-11.31,25.21-25.21V83.72c0-13.9-11.31-25.21-25.21-25.21H73.04c-13.9,0-25.21,11.31-25.21,25.2V244.32c0,13.9,11.3,25.21,25.21,25.21h0Zm-8.74-185.82c0-4.82,3.92-8.74,8.74-8.74h203.68c4.82,0,8.74,3.92,8.74,8.74V244.32c0,4.82-3.92,8.74-8.74,8.74H73.04c-4.82,0-8.74-3.93-8.74-8.74V83.71Z"/><path d="M82.37,259.85h185.01c12.63,0,22.9-10.27,22.9-22.9V91.08c0-12.63-10.27-22.9-22.9-22.9H82.37c-12.63,0-22.9,10.27-22.9,22.89V236.95c0,12.63,10.26,22.9,22.9,22.9h0Zm-7.94-168.79c0-4.38,3.56-7.94,7.94-7.94h185.01c4.38,0,7.94,3.56,7.94,7.94V236.95c0,4.38-3.56,7.94-7.94,7.94H82.37c-4.38,0-7.94-3.57-7.94-7.94V91.07Z"/><path d="M277.34,317.92h-63.97c-5.59,0-10.13,4.55-10.13,10.13v35.31c0,5.59,4.55,10.13,10.13,10.13h24.89c25.44,0,46.59-19.05,49.18-44.33,.3-2.88-.64-5.76-2.58-7.91-1.92-2.12-4.66-3.34-7.52-3.34h0Zm-39.08,43.3h-22.74v-31.02h59.4c-2.94,17.84-18.31,31.02-36.66,31.02h0Z"/><path d="M340.52,310.3V86.59c0-40.99-33.36-74.35-74.36-74.35H83.59C42.59,12.23,9.24,45.59,9.24,86.59v223.71c0,59.35,48.29,107.64,107.64,107.64h26.91v101.32c0,4.31,3.49,7.8,7.8,7.8h46.59c4.31,0,7.8-3.5,7.8-7.8v-101.32h26.91c59.35,0,107.64-48.29,107.64-107.64h0Zm-150.15,201.15h-30.99v-93.52h30.99v93.52Zm42.51-109.12H116.87c-50.75,0-92.04-41.29-92.04-92.04V86.59c0-32.39,26.36-58.75,58.76-58.75h182.57c32.39,0,58.76,26.36,58.76,58.75v223.71c0,50.75-41.29,92.04-92.05,92.04h0Z"/><path d="M72.24,317.92h0c-2.86,0-5.6,1.22-7.52,3.34-1.94,2.15-2.88,5.03-2.58,7.91,2.6,25.27,23.74,44.33,49.18,44.33h24.89c5.59,0,10.13-4.54,10.13-10.13v-35.31c0-5.59-4.54-10.13-10.13-10.13h-63.97Zm39.08,43.3c-18.35,0-33.72-13.18-36.66-31.02h59.4v31.02h-22.74Z"/><rect x="150.72" y="428.32" width="17.33" height="83.13"/><rect x="182.57" y="428.32" width="17.33" height="83.13"/></svg>